<?xml version="1.0" standalone="no"?>
<svg viewBox="0 0 200 200" xmlns="http://www.w3.org/2000/svg">
  <path fill="#E8DAFF" d="M47.9,-74.2C60.7,-66.4,68.6,-50.7,76,-34.7C83.4,-18.7,90.3,-2.3,89.7,14C89.1,30.4,81.1,46.9,69.5,60.2C57.9,73.6,42.8,83.8,26.5,87.1C10.2,90.4,-7.1,86.8,-23,80.9C-38.9,75.1,-53.3,66.9,-63.9,55.1C-74.6,43.4,-81.4,28,-82.8,12.5C-84.1,-3.1,-80,-18.9,-73.3,-33.4C-66.6,-48,-57.4,-61.5,-44.7,-69.4C-32.1,-77.3,-16,-79.6,0.8,-80.8C17.6,-82,35.2,-82.1,47.9,-74.2Z" transform="translate(100 100)" />
</svg>
